<svg width="41" height="35" viewBox="0 0 41 35" fill="none" xmlns="http://www.w3.org/2000/svg">
<path d="M40.9295 33.4091C40.9295 33.831 40.7637 34.2357 40.4685 34.534C40.1732 34.8324 39.7728 35 39.3553 35H1.57421C1.15671 35 0.756299 34.8324 0.461076 34.534C0.165854 34.2357 0 33.831 0 33.4091V1.59091C0 1.16897 0.165854 0.76432 0.461076 0.465967C0.756299 0.167613 1.15671 0 1.57421 0C1.99172 0 2.39213 0.167613 2.68735 0.465967C2.98257 0.76432 3.14843 1.16897 3.14843 1.59091V20.3577L13.1309 11.5341C13.4025 11.2938 13.7477 11.1551 14.1084 11.1414C14.4692 11.1276 14.8237 11.2396 15.1124 11.4585L26.6849 20.2304L38.3183 9.94318C38.4708 9.79059 38.6526 9.67113 38.8525 9.59214C39.0524 9.51316 39.2662 9.47632 39.4807 9.48388C39.6952 9.49145 39.9059 9.54326 40.0998 9.63613C40.2938 9.72901 40.4669 9.86098 40.6085 10.0239C40.7502 10.1869 40.8573 10.3774 40.9235 10.5838C40.9896 10.7901 41.0132 11.008 40.993 11.2239C40.9727 11.4399 40.909 11.6493 40.8057 11.8395C40.7024 12.0296 40.5617 12.1964 40.3923 12.3295L27.7986 23.4659C27.527 23.7062 27.1819 23.8449 26.8211 23.8586C26.4604 23.8724 26.1059 23.7604 25.8171 23.5415L14.2447 14.7736L3.14843 24.5855V31.8182H39.3553C39.7728 31.8182 40.1732 31.9858 40.4685 32.2841C40.7637 32.5825 40.9295 32.9872 40.9295 33.4091Z" fill="white"/>
</svg>
