<svg width="39" height="28" viewBox="0 0 39 28" fill="none" xmlns="http://www.w3.org/2000/svg">
<path d="M39 0V5.98997H36.5625V1.99666H2.4375V19.9666H19.5V21.9632H0V0H39ZM29.25 5.98997C30.5957 5.98997 31.8589 6.19796 33.0396 6.61393C34.2202 7.0299 35.2549 7.59666 36.1436 8.31421C37.0322 9.03175 37.7305 9.87929 38.2383 10.8568C38.7461 11.8344 39 12.8743 39 13.9766C39 15.0789 38.7588 16.0929 38.2764 17.0184C37.7939 17.9439 37.0894 18.8071 36.1626 19.6078L35.5532 20.1382C35.4009 20.2734 35.2422 20.4241 35.0771 20.5905C34.9121 20.7569 34.7661 20.9441 34.6392 21.1521C34.5122 21.3601 34.4043 21.5577 34.3154 21.7448C34.2266 21.932 34.1821 22.1296 34.1821 22.3376V24.9582C34.1821 25.3846 34.0869 25.7798 33.8965 26.1437C33.7061 26.5077 33.4395 26.8301 33.0967 27.1109C32.7539 27.3916 32.3604 27.6048 31.916 27.7504C31.4717 27.896 30.9893 27.9792 30.4688 28H28.0312C27.5107 28 27.0283 27.922 26.584 27.766C26.1396 27.61 25.7461 27.3916 25.4033 27.1109C25.0605 26.8301 24.8003 26.5129 24.6226 26.1593C24.4448 25.8058 24.3433 25.4054 24.3179 24.9582V22.3376C24.3052 22.0776 24.2354 21.8228 24.1084 21.5733C23.9814 21.3237 23.8228 21.0845 23.6323 20.8557C23.4419 20.6269 23.2324 20.4085 23.0039 20.2006C22.7754 19.9926 22.5532 19.795 22.3374 19.6078C21.4233 18.8175 20.7251 17.9595 20.2427 17.034C19.7603 16.1084 19.5127 15.0893 19.5 13.9766C19.5 12.8743 19.7539 11.8396 20.2617 10.8724C20.7695 9.90529 21.4614 9.05775 22.3374 8.32981C23.2134 7.60186 24.248 7.0299 25.4414 6.61393C26.6348 6.19796 27.9043 5.98997 29.25 5.98997ZM31.6304 24.0067H26.8696V24.9582C26.8696 25.2182 26.9839 25.4418 27.2124 25.629C27.4409 25.8162 27.7139 25.9097 28.0312 25.9097H30.4688C30.7861 25.9097 31.0591 25.8162 31.2876 25.629C31.5161 25.4418 31.6304 25.2182 31.6304 24.9582V24.0067ZM31.8018 21.9164C31.9287 21.3237 32.1318 20.8141 32.4111 20.3877C32.6904 19.9614 33.0078 19.5662 33.3633 19.2022C33.7188 18.8383 34.0806 18.4951 34.4487 18.1727C34.8169 17.8503 35.1597 17.4916 35.4771 17.0964C35.7944 16.7012 36.0547 16.2592 36.2578 15.7705C36.4609 15.2817 36.5625 14.6838 36.5625 13.9766C36.5625 13.1447 36.3721 12.3647 35.9912 11.6368C35.6104 10.9088 35.0898 10.2745 34.4297 9.7337C33.7695 9.19294 32.9951 8.76657 32.1064 8.4546C31.2178 8.14262 30.2656 7.98663 29.25 7.98663C28.2344 7.98663 27.2822 8.14262 26.3936 8.4546C25.5049 8.76657 24.7305 9.19294 24.0703 9.7337C23.4102 10.2745 22.8896 10.9088 22.5088 11.6368C22.1279 12.3647 21.9375 13.1447 21.9375 13.9766C21.9375 14.7669 22.1216 15.5313 22.4897 16.2696C22.8579 17.008 23.3848 17.6735 24.0703 18.2663C24.4131 18.5471 24.7241 18.8175 25.0034 19.0774C25.2827 19.3374 25.5366 19.613 25.7651 19.9042C25.9937 20.1954 26.1841 20.4969 26.3364 20.8089C26.4888 21.1209 26.6094 21.4901 26.6982 21.9164H31.8018Z" fill="black"/>
</svg>
