<svg width="33" height="29" viewBox="0 0 33 29" fill="none" xmlns="http://www.w3.org/2000/svg">
<path d="M26.7821 27.6049C27.3541 28.2976 28.1364 28.6942 28.9567 28.7077C29.7771 28.7211 30.5684 28.3501 31.1565 27.6764C31.7447 27.0027 32.0815 26.0815 32.0929 25.1153C32.1043 24.1491 31.7893 23.2172 31.2173 22.5245L24.1089 14.3315L31.2173 6.13853C31.502 5.80594 31.728 5.41024 31.8822 4.97426C32.0364 4.53828 32.1158 4.07065 32.1158 3.59835C32.1158 3.12605 32.0364 2.65842 31.8822 2.22244C31.728 1.78646 31.502 1.39076 31.2173 1.05816C30.9349 0.72283 30.5989 0.456667 30.2287 0.275032C29.8585 0.0933952 29.4615 -0.000123978 29.0605 -0.000123978C28.6594 -0.000123978 28.2624 0.0933952 27.8922 0.275032C27.522 0.456667 27.186 0.72283 26.9036 1.05816L17.7903 11.7913C17.5056 12.1239 17.2796 12.5196 17.1254 12.9556C16.9711 13.3916 16.8917 13.8592 16.8917 14.3315C16.8917 14.8038 16.9711 15.2715 17.1254 15.7074C17.2796 16.1434 17.5056 16.5391 17.7903 16.8717L26.7821 27.6049ZM0.961016 16.8717L10.0743 27.6049C10.6464 28.2786 11.4222 28.6571 12.2312 28.6571C13.0401 28.6571 13.816 28.2786 14.388 27.6049C14.96 26.9312 15.2814 26.0174 15.2814 25.0647C15.2814 24.1119 14.96 23.1982 14.388 22.5245L7.4011 14.3315L14.388 6.13853C14.6727 5.80594 14.8987 5.41024 15.0529 4.97426C15.2072 4.53828 15.2866 4.07065 15.2866 3.59835C15.2866 3.12605 15.2072 2.65842 15.0529 2.22244C14.8987 1.78646 14.6727 1.39076 14.388 1.05816C14.1056 0.72283 13.7696 0.456667 13.3994 0.275032C13.0292 0.0933952 12.6322 -0.000123978 12.2312 -0.000123978C11.8301 -0.000123978 11.4331 0.0933952 11.0629 0.275032C10.6927 0.456667 10.3567 0.72283 10.0743 1.05816L0.961016 11.7913C0.668192 12.1144 0.432604 12.5026 0.26786 12.9334C0.103119 13.3643 0.0124779 13.8293 0.00118256 14.3017C-0.0101166 14.774 0.0581474 15.2444 0.202034 15.6855C0.345922 16.1266 0.562582 16.5298 0.8395 16.8717H0.961016Z" fill="#0F3DDE"/>
</svg>
