<svg width="45" height="42" viewBox="0 0 45 42" fill="none" xmlns="http://www.w3.org/2000/svg">
<path d="M2.0075 19.173C1.98352 18.8968 2.01721 18.6187 2.10642 18.3563C2.19563 18.0939 2.33842 17.8528 2.52572 17.6485C2.71302 17.4442 2.94075 17.281 3.19446 17.1694C3.44817 17.0578 3.72231 17.0001 3.9995 17H7.8185C8.34893 17 8.85764 17.2107 9.23271 17.5858C9.60778 17.9609 9.8185 18.4696 9.8185 19V38C9.8185 38.5304 9.60778 39.0391 9.23271 39.4142C8.85764 39.7893 8.34893 40 7.8185 40H5.6525C5.15193 40.0001 4.66951 39.8125 4.30052 39.4743C3.93153 39.136 3.7028 38.6717 3.6595 38.173L2.0075 19.173ZM15.8185 18.375C15.8185 17.539 16.3385 16.791 17.0935 16.435C18.7425 15.657 21.5515 14.094 22.8185 11.981C24.4515 9.25699 24.7595 4.33599 24.8095 3.20899C24.8165 3.05099 24.8125 2.89299 24.8335 2.73699C25.1045 0.783994 28.8735 3.06499 30.3185 5.47699C31.1035 6.78499 31.2035 8.50399 31.1215 9.84699C31.0325 11.283 30.6115 12.67 30.1985 14.048L29.3185 16.985H40.1755C40.4845 16.985 40.7893 17.0566 41.066 17.1941C41.3427 17.3317 41.5838 17.5315 41.7703 17.7779C41.9568 18.0243 42.0836 18.3105 42.1409 18.6142C42.1982 18.9178 42.1844 19.2306 42.1005 19.528L36.7305 38.544C36.612 38.9634 36.3597 39.3326 36.012 39.5954C35.6643 39.8582 35.2403 40.0003 34.8045 40H17.8185C17.2881 40 16.7794 39.7893 16.4043 39.4142C16.0292 39.0391 15.8185 38.5304 15.8185 38V18.375Z" stroke="black" stroke-width="4" stroke-linecap="round" stroke-linejoin="round"/>
</svg>
