<svg width="29" height="27" viewBox="0 0 29 27" fill="none" xmlns="http://www.w3.org/2000/svg">
<path d="M1.90735e-06 2.18262V24.9597C0.00110817 25.1903 0.0984573 25.4163 0.281569 25.6135C0.46468 25.8106 0.726616 25.9714 1.03919 26.0785C1.35176 26.1856 1.70313 26.235 2.05548 26.2214C2.40783 26.2077 2.7478 26.1316 3.03882 26.0011L28.2171 14.6126C29.261 14.1406 29.261 13.0043 28.2171 12.531L3.03882 1.14247C2.74841 1.01065 2.40826 0.933344 2.05533 0.918957C1.70239 0.904571 1.35018 0.953653 1.03694 1.06087C0.723707 1.16809 0.461433 1.32934 0.27862 1.5271C0.0958061 1.72487 -0.000555038 1.95159 1.90735e-06 2.18262Z" fill="black"/>
</svg>
