<svg width="30" height="27" viewBox="0 0 30 27" fill="none" xmlns="http://www.w3.org/2000/svg">
<path d="M29.6221 24.7585V1.98149C29.621 1.75089 29.5236 1.52484 29.3405 1.32769C29.1574 1.13055 28.8955 0.969759 28.5829 0.862638C28.2703 0.755518 27.9189 0.706121 27.5666 0.719767C27.2142 0.733412 26.8743 0.80958 26.5832 0.940075L1.40502 12.3286C0.361088 12.8006 0.361088 13.9369 1.40502 14.4102L26.5832 25.7987C26.8737 25.9305 27.2138 26.0078 27.5667 26.0222C27.9197 26.0366 28.2719 25.9875 28.5851 25.8803C28.8984 25.7731 29.1606 25.6118 29.3434 25.4141C29.5263 25.2163 29.6226 24.9896 29.6221 24.7585Z" fill="black"/>
</svg>
