<svg width="25" height="30" viewBox="0 0 25 30" fill="none" xmlns="http://www.w3.org/2000/svg">
<path d="M17.5487 26.3298C17.5487 27.3032 17.0548 28.2368 16.1757 28.925C15.2967 29.6133 14.1044 30 12.8612 30C11.6181 30 10.4258 29.6133 9.54674 28.925C8.66768 28.2368 8.17383 27.3032 8.17383 26.3298C8.17383 25.3564 8.66768 24.4229 9.54674 23.7346C10.4258 23.0463 11.6181 22.6597 12.8612 22.6597C14.1044 22.6597 15.2967 23.0463 16.1757 23.7346C17.0548 24.4229 17.5487 25.3564 17.5487 26.3298Z" fill="black"/>
<path fill-rule="evenodd" clip-rule="evenodd" d="M12.7936 5.32175C11.2233 5.32175 9.87565 5.68877 8.92645 6.2136C8.0124 6.72009 7.56007 7.30915 7.42882 7.81747C7.23489 8.49694 6.70856 9.08982 5.96275 9.46894C5.21694 9.84805 4.31106 9.98318 3.43947 9.84535C2.56787 9.70752 1.79999 9.30769 1.30056 8.73166C0.801129 8.15562 0.609939 7.44927 0.768006 6.76413C1.30003 4.69782 2.93593 3.01138 5.00777 1.86445C7.16398 0.671642 9.89674 0 12.7936 0C18.7864 0 24.9996 3.138 24.9996 8.17715C24.9996 11.0949 22.7848 13.4549 19.9161 14.8312C19.1472 15.1996 18.2228 15.3138 17.3464 15.1486C16.47 14.9834 15.7133 14.5524 15.2427 13.9503C14.7722 13.3483 14.6264 12.6245 14.8373 11.9383C15.0483 11.2521 15.5988 10.6596 16.3677 10.2912C17.7036 9.65072 18.2028 8.83411 18.2028 8.17715C18.2028 7.12381 16.5271 5.32175 12.7936 5.32175Z" fill="black"/>
<path fill-rule="evenodd" clip-rule="evenodd" d="M12.7939 12.4148C14.6688 12.4148 16.1923 13.6039 16.1923 15.0757V17.832C16.1923 18.5377 15.8342 19.2145 15.1969 19.7135C14.5596 20.2125 13.6952 20.4928 12.7939 20.4928C11.8926 20.4928 11.0282 20.2125 10.3909 19.7135C9.75355 19.2145 9.39551 18.5377 9.39551 17.832V15.0757C9.39551 13.6076 10.9166 12.4148 12.7939 12.4148Z" fill="black"/>
<path fill-rule="evenodd" clip-rule="evenodd" d="M21.0649 11.1956C21.2944 11.4956 21.4462 11.8281 21.5116 12.174C21.5769 12.52 21.5546 12.8726 21.4457 13.2118C21.3369 13.5509 21.1437 13.87 20.8773 14.1506C20.6109 14.4313 20.2764 14.6681 19.893 14.8475L14.54 17.356C13.7667 17.7186 12.8412 17.8258 11.967 17.6541C11.0927 17.4824 10.3415 17.0458 9.87837 16.4403C9.41529 15.8349 9.27834 15.1102 9.49767 14.4257C9.717 13.7412 10.2746 13.1529 11.0479 12.7903L16.4032 10.2799C16.7863 10.1005 17.2107 9.98185 17.6523 9.93084C18.0938 9.87983 18.5439 9.89743 18.9768 9.98263C19.4097 10.0678 19.8169 10.219 20.1752 10.4274C20.5335 10.6359 20.8358 10.8957 21.0649 11.1956Z" fill="black"/>
</svg>
