<svg width="24" height="25" viewBox="0 0 24 25" fill="none" xmlns="http://www.w3.org/2000/svg">
<path d="M9.51315 0C9.3279 5.83768e-06 9.14743 0.0588067 8.99774 0.167934C8.84804 0.277062 8.73684 0.430885 8.68015 0.60725L7.71765 3.598C7.3134 3.79575 6.92665 4.018 6.5574 4.26825L3.4844 3.60675C3.30322 3.56807 3.11443 3.58789 2.94523 3.66337C2.77603 3.73885 2.63516 3.86608 2.5429 4.02675L0.117403 8.225C0.0247841 8.38557 -0.0144482 8.57141 0.00536728 8.75572C0.0251827 8.94003 0.103018 9.11328 0.227652 9.2505L2.3364 11.578C2.30569 12.0243 2.30569 12.4722 2.3364 12.9185L0.227652 15.2495C0.103018 15.3867 0.0251827 15.56 0.00536728 15.7443C-0.0144482 15.9286 0.0247841 16.1144 0.117403 16.275L2.5429 20.475C2.63541 20.6353 2.7764 20.7622 2.94557 20.8374C3.11475 20.9125 3.3034 20.9321 3.4844 20.8932L6.5574 20.2318C6.9249 20.4803 7.3134 20.7043 7.7159 20.902L8.68015 23.8927C8.73684 24.0691 8.84804 24.2229 8.99774 24.3321C9.14743 24.4412 9.3279 24.5 9.51315 24.5H14.3642C14.5494 24.5 14.7299 24.4412 14.8796 24.3321C15.0293 24.2229 15.1405 24.0691 15.1972 23.8927L16.1579 20.9037C16.5611 20.7066 16.9499 20.4814 17.3217 20.23L20.3929 20.8932C20.5741 20.9319 20.7629 20.9121 20.9321 20.8366C21.1013 20.7612 21.2421 20.6339 21.3344 20.4733L23.7599 16.275C23.8525 16.1144 23.8918 15.9286 23.8719 15.7443C23.8521 15.56 23.7743 15.3867 23.6497 15.2495L21.5409 12.9185C21.5715 12.4734 21.5715 12.0266 21.5409 11.5815L23.6497 9.2505C23.7743 9.11328 23.8521 8.94003 23.8719 8.75572C23.8918 8.57141 23.8525 8.38557 23.7599 8.225L21.3344 4.025C21.2419 3.86465 21.1009 3.73778 20.9317 3.66263C20.7626 3.58747 20.5739 3.56791 20.3929 3.60675L17.3217 4.27C16.9507 4.01975 16.5622 3.794 16.1579 3.59625L15.1954 0.60725C15.1389 0.431453 15.0282 0.278037 14.8792 0.168962C14.7302 0.0598875 14.5506 0.000744918 14.3659 0H9.5149H9.51315ZM10.1537 1.75H13.7237L14.7177 4.84225L15.3879 5.1695C15.7174 5.33073 16.0355 5.51433 16.3399 5.719L16.9594 6.139L20.1374 5.453L21.9224 8.547L19.7437 10.9585L19.7962 11.7005C19.8213 12.0664 19.8213 12.4336 19.7962 12.7995L19.7437 13.5415L21.9259 15.953L20.1392 19.047L16.9612 18.3628L16.3417 18.781C16.0372 18.9857 15.7192 19.1693 15.3897 19.3305L14.7194 19.6577L13.7237 22.75H10.1502L9.15265 19.656L8.48415 19.3305C8.15501 19.1697 7.83749 18.986 7.5339 18.781L6.91615 18.3628L3.7364 19.047L1.9514 15.953L4.1319 13.5415L4.0794 12.7995C4.05417 12.433 4.05417 12.0652 4.0794 11.6987L4.1319 10.9567L1.94965 8.547L3.7364 5.453L6.91615 6.1355L7.5339 5.719C7.83749 5.51395 8.15501 5.33034 8.48415 5.1695L9.15265 4.844L10.1519 1.75H10.1537ZM11.9387 7C10.5463 7 9.21091 7.55312 8.22634 8.53769C7.24178 9.52225 6.68865 10.8576 6.68865 12.25C6.68865 13.6424 7.24178 14.9777 8.22634 15.9623C9.21091 16.9469 10.5463 17.5 11.9387 17.5C13.331 17.5 14.6664 16.9469 15.651 15.9623C16.6355 14.9777 17.1887 13.6424 17.1887 12.25C17.1887 10.8576 16.6355 9.52225 15.651 8.53769C14.6664 7.55312 13.331 7 11.9387 7ZM11.9387 8.75C12.8669 8.75 13.7572 9.11875 14.4135 9.77513C15.0699 10.4315 15.4387 11.3217 15.4387 12.25C15.4387 13.1783 15.0699 14.0685 14.4135 14.7249C13.7572 15.3813 12.8669 15.75 11.9387 15.75C11.0104 15.75 10.1202 15.3813 9.46378 14.7249C8.8074 14.0685 8.43865 13.1783 8.43865 12.25C8.43865 11.3217 8.8074 10.4315 9.46378 9.77513C10.1202 9.11875 11.0104 8.75 11.9387 8.75Z" fill="black"/>
</svg>
