<svg width="42" height="26" viewBox="0 0 42 26" fill="none" xmlns="http://www.w3.org/2000/svg">
<path d="M40.9385 13.9523C40.6348 16.2424 39.2417 18.432 36.9247 20.2611C34.6078 22.0901 31.4644 23.4817 27.868 24.2705C24.2717 25.0593 20.3735 25.2122 16.6366 24.7109C12.8997 24.2096 9.48119 23.0753 6.78721 21.4427C4.09323 19.81 2.237 17.7478 1.43907 15.5009C0.641145 13.254 0.935047 10.9169 2.28586 8.76721C3.63668 6.61757 5.98763 4.74575 9.05941 3.37413C12.1312 2.00252 15.7947 1.18876 19.6146 1.02954" stroke="black" stroke-width="2" stroke-linecap="round" stroke-linejoin="round"/>
<path d="M29.5847 15.0119C29.029 15.87 28.1256 16.6314 26.9562 17.2273C25.7868 17.8233 24.3882 18.2349 22.8869 18.4251C21.3857 18.6152 19.8291 18.5779 18.3579 18.3164C16.8868 18.0549 15.5475 17.5775 14.4612 16.9274C13.3748 16.2774 12.5757 15.4751 12.1361 14.5931C11.6964 13.7112 11.6302 12.7774 11.9432 11.8762C12.2563 10.975 12.9388 10.1349 13.9291 9.43172C14.9194 8.72858 16.1862 8.18462 17.615 7.84904M20.9997 12.9997L28.6923 8.38441M28.6923 8.38441L34.8464 9.30746L41.0005 5.61526L34.8464 4.6922L33.3079 1L27.1538 4.6922L28.6923 8.38441Z" stroke="black" stroke-width="2" stroke-linecap="round" stroke-linejoin="round"/>
</svg>
