<svg width="34" height="33" viewBox="0 0 34 33" fill="none" xmlns="http://www.w3.org/2000/svg">
<path d="M10.3139 0.0118323C9.97501 0.0571972 9.66726 0.234751 9.45659 0.506425L5.00425 6.15269L2.0639 4.17432C1.91907 4.07616 1.75647 4.00782 1.58541 3.97324C1.41435 3.93865 1.23821 3.9385 1.06709 3.97278C0.895975 4.00707 0.733249 4.07511 0.588253 4.17302C0.443256 4.27093 0.318843 4.39677 0.222151 4.54333C0.125459 4.68988 0.0583927 4.85426 0.0247993 5.02704C-0.00879408 5.19981 -0.00825291 5.37758 0.0263917 5.55015C0.0610364 5.72271 0.129103 5.88667 0.226685 6.03262C0.324267 6.17857 0.449444 6.30364 0.595034 6.40065L4.5155 9.03848C4.79027 9.22312 5.12411 9.29597 5.44992 9.24239C5.77573 9.18881 6.06938 9.01276 6.27187 8.74963L11.4991 2.15507C11.6655 1.95026 11.7669 1.69966 11.7902 1.43588C11.8135 1.17209 11.7575 0.907352 11.6296 0.676108C11.5017 0.444865 11.3078 0.257831 11.0732 0.139353C10.8385 0.0208753 10.5739 -0.0235597 10.3139 0.0118323ZM15.7045 3.96857V6.6064H34V3.96857H15.7045ZM10.3139 11.8821C9.97501 11.9274 9.66726 12.105 9.45659 12.3766L5.00425 18.0229L2.0639 16.0445C1.77138 15.8478 1.41339 15.7764 1.06869 15.846C0.723991 15.9156 0.420814 16.1206 0.225857 16.4158C0.0309 16.711 -0.0398682 17.0723 0.0291208 17.4202C0.0981099 17.7681 0.301205 18.0741 0.593727 18.2709L4.51419 20.9087C4.78897 21.0933 5.1228 21.1662 5.44861 21.1126C5.77443 21.059 6.06808 20.883 6.27056 20.6199L11.4978 14.0253C11.6641 13.8206 11.7654 13.5701 11.7887 13.3065C11.812 13.0428 11.7562 12.7782 11.6284 12.5471C11.5007 12.3159 11.3071 12.1288 11.0726 12.0102C10.8382 11.8916 10.5738 11.847 10.3139 11.8821ZM15.7045 15.8388V18.4766H34V15.8388H15.7045ZM10.3139 23.7523C9.97501 23.7976 9.66726 23.9752 9.45659 24.2469L5.00425 29.8931L2.0639 27.9148C1.91906 27.8173 1.75662 27.7497 1.58586 27.7156C1.4151 27.6815 1.23937 27.6817 1.06869 27.7162C0.723991 27.7858 0.420814 27.9908 0.225857 28.286C0.0309 28.5813 -0.0398682 28.9426 0.0291208 29.2905C0.0981099 29.6383 0.301205 29.9443 0.593727 30.1411L4.51419 32.7789C4.78897 32.9636 5.1228 33.0364 5.44861 32.9828C5.77443 32.9292 6.06808 32.7532 6.27056 32.4901L11.4978 25.8955C11.6641 25.6908 11.7654 25.4403 11.7887 25.1767C11.812 24.9131 11.7562 24.6485 11.6284 24.4173C11.5007 24.1861 11.3071 23.9991 11.0726 23.8805C10.8382 23.7619 10.5738 23.7172 10.3139 23.7523ZM15.7045 27.709V30.3468H34V27.709H15.7045Z" fill="black"/>
</svg>
