<svg width="40" height="37" viewBox="0 0 40 37" fill="none" xmlns="http://www.w3.org/2000/svg">
<path d="M38.4095 31.8087C38.9237 32.2947 39.2126 32.9538 39.2126 33.6411C39.2126 34.3284 38.9237 34.9876 38.4095 35.4735C37.8953 35.9595 37.1979 36.2326 36.4707 36.2326C35.7435 36.2326 35.0461 35.9595 34.5319 35.4735L20.0505 21.7822L5.5644 35.4692C5.0502 35.9552 4.35281 36.2282 3.62563 36.2282C2.89845 36.2282 2.20105 35.9552 1.68686 35.4692C1.17266 34.9832 0.883789 34.3241 0.883789 33.6368C0.883789 32.9495 1.17266 32.2904 1.68686 31.8044L16.1729 18.1174L1.69142 4.42599C1.17722 3.94001 0.888351 3.28087 0.888351 2.59358C0.888351 1.90629 1.17722 1.24715 1.69142 0.761166C2.20561 0.27518 2.90301 0.00215543 3.63019 0.00215542C4.35737 0.00215541 5.05477 0.27518 5.56896 0.761166L20.0505 14.4525L34.5365 0.75901C35.0507 0.273024 35.7481 -1.14502e-08 36.4753 0C37.2025 1.14502e-08 37.8999 0.273024 38.414 0.75901C38.9282 1.245 39.2171 1.90414 39.2171 2.59142C39.2171 3.27871 38.9282 3.93785 38.414 4.42384L23.928 18.1174L38.4095 31.8087Z" fill="#FF3D00"/>
</svg>
